<?xml version="1.0" encoding="UTF-8" standalone="no"?>
<!-- Created with Inkscape (http://www.inkscape.org/) -->

<svg
   width="208mm"
   height="121mm"
   viewBox="0 0 208 121"
   version="1.1"
   id="svg1"
   xml:space="preserve"
   inkscape:version="1.3.2 (091e20ef0f, 2023-11-25)"
   sodipodi:docname="gepref.svg"
   inkscape:export-filename="gepref.png"
   inkscape:export-xdpi="96"
   inkscape:export-ydpi="96"
   xmlns:inkscape="http://www.inkscape.org/namespaces/inkscape"
   xmlns:sodipodi="http://sodipodi.sourceforge.net/DTD/sodipodi-0.dtd"
   xmlns="http://www.w3.org/2000/svg"
   xmlns:svg="http://www.w3.org/2000/svg"><sodipodi:namedview
     id="namedview1"
     pagecolor="#ffffff"
     bordercolor="#000000"
     borderopacity="0.25"
     inkscape:showpageshadow="2"
     inkscape:pageopacity="0.0"
     inkscape:pagecheckerboard="0"
     inkscape:deskcolor="#d1d1d1"
     inkscape:document-units="mm"
     inkscape:zoom="0.7518799"
     inkscape:cx="426.92989"
     inkscape:cy="176.88995"
     inkscape:window-width="1916"
     inkscape:window-height="1042"
     inkscape:window-x="1080"
     inkscape:window-y="876"
     inkscape:window-maximized="1"
     inkscape:current-layer="layer1"
     showguides="false"
     showgrid="false" /><defs
     id="defs1"><rect
       x="16.875782"
       y="642.23389"
       width="280.90555"
       height="139.42021"
       id="rect6" /><rect
       x="457.06024"
       y="776.7995"
       width="288.05054"
       height="169.29039"
       id="rect5" /><rect
       x="0"
       y="521.36584"
       width="208.75003"
       height="223.8726"
       id="rect3" /><rect
       x="0"
       y="521.36584"
       width="208.75003"
       height="223.8726"
       id="rect4" /></defs><g
     inkscape:label="Layer 1"
     inkscape:groupmode="layer"
     id="layer1"><g
       id="g8"
       transform="translate(-14.206879,-60.599106)"><path
         id="path7"
         style="fill:#999999;stroke:#000000;stroke-width:1.5;stroke-dasharray:none;stroke-opacity:1"
         inkscape:transform-center-x="48.840131"
         inkscape:transform-center-y="3.3797406"
         d="m 221.41749,99.574801 -38.6271,24.708049 a 73.087296,22.001381 0 0 1 12.5305,3.93775 c 13.79881,-12.89737 26.0966,-28.645799 26.0966,-28.645799 z" /><rect
         style="fill:#333333;stroke-width:0.908677"
         id="rect1"
         width="68.203049"
         height="49.906391"
         x="35.833481"
         y="115.7366"
         ry="24.953196" /><path
         style="fill:#dcb1b2;fill-opacity:1;stroke:#000005;stroke-width:1.5;stroke-dasharray:none;stroke-opacity:1"
         id="path5"
         sodipodi:type="arc"
         sodipodi:cx="71.357918"
         sodipodi:cy="102.9091"
         sodipodi:rx="9.253581"
         sodipodi:ry="9.996666"
         sodipodi:start="0"
         sodipodi:end="6.2810403"
         sodipodi:arc-type="arc"
         d="m 80.611499,102.9091 a 9.253581,9.996666 0 0 1 -9.248619,9.99667 9.253581,9.996666 0 0 1 -9.258538,-9.98595 9.253581,9.996666 0 0 1 9.238689,-10.00737 9.253581,9.996666 0 0 1 9.268447,9.97521"
         sodipodi:open="true" /><path
         d="m 57.5445,82.102313 c 10.326431,-2.053142 11.136997,-2.79907 17.039167,-3.078633 6.419255,-0.304057 11.278279,0.714957 14.555532,2.144871 3.302823,1.417379 4.954263,3.499525 4.954263,6.246466 0,2.772019 -1.65144,4.866714 -4.954263,6.284093 -3.277253,1.417379 -8.129081,2.126058 -14.555532,2.126058 h -9.754893 v 17.080602 h -7.757837 z"
         id="text4"
         style="font-size:33.3333px;-inkscape-font-specification:sans-serif;text-align:center;text-anchor:middle;white-space:pre;fill:#008080;stroke:#000000;stroke-width:1.5;stroke-dasharray:none;stroke-opacity:1"
         aria-label="P"
         sodipodi:nodetypes="cscscscccc" /><g
         id="g1"
         transform="matrix(0.02559156,0,0,0.02559156,69.030754,100.02664)">
	<path
   class="st0"
   d="m 510.304,239.426 c 0,0 -15.641,30.016 -44.969,27.875 -29.359,-2.141 -60.641,-70.766 -119.344,-92.219 -58.688,-21.453 -90,12.859 -90,12.859 0,0 -31.297,-34.313 -89.969,-12.859 -58.688,21.453 -89.984,90.078 -119.328,92.219 -29.344,2.141 -45,-27.875 -45,-27.875 0,0 -9.781,25.734 17.625,62.188 27.375,36.453 103.656,51.781 152.578,36.453 54.75,-17.156 84.094,-60.031 84.094,-60.031 0,0 27.391,45.031 84.125,60.031 49.453,13.094 125.219,0 152.594,-36.453 27.375,-36.453 17.594,-62.188 17.594,-62.188 z"
   id="path1" />
</g><path
         id="path4"
         style="fill:#999999;stroke:#000005;stroke-width:1.5;stroke-dasharray:none;stroke-opacity:1"
         d="m 136.91267,119.39943 a 73.087296,22.001381 0 0 0 -38.141738,3.2799 30.120339,53.978725 0 0 1 1.948238,18.23093 l 10e-4,0.49041 a 30.120339,53.978725 0 0 1 -1.951185,18.72134 73.087296,22.001381 0 0 0 38.143505,3.2799 A 73.087296,22.001381 0 0 0 210,141.40067 73.087296,22.001381 0 0 0 136.91267,119.39943 Z" /><path
         id="text3"
         style="font-size:33.3333px;-inkscape-font-specification:sans-serif;text-align:center;text-anchor:middle;white-space:pre;fill:#999999;stroke:#000005;stroke-width:1.5;stroke-dasharray:none;stroke-opacity:1"
         d="m 67.187113,61.739766 c -16.29639,0 -29.054018,4.772437 -38.273116,14.317473 -9.172533,9.498463 -13.75885,22.768629 -13.75885,39.809971 0,16.9948 4.586317,30.26443 13.75885,39.80946 9.219098,9.49846 21.976726,14.24771 38.273116,14.24771 7.449762,0 14.457375,-0.97761 21.02249,-2.93315 6.565114,-2.00213 15.218107,-8.35182 18.086157,-16.53159 1.00416,-3.67346 2.8619,-8.74561 2.22401,-13.75896 -0.0469,-5.27651 -3.0004,-14.25062 -10.269139,-20.05459 -6.869045,-4.95233 -15.236131,-5.23235 -26.892713,-5.23235 -10.453903,0 -17.295649,0.25125 -24.233135,3.75696 -6.937486,3.50571 -9.751619,14.84828 -10.666453,25.62892 l 59.669653,-0.36181 c -0.55508,5.82628 -3.19146,10.27278 -7.909595,13.33924 -4.764395,3.0358 -11.379382,4.55372 -19.844267,4.55372 -0.855466,0 -1.699455,-0.0279 -2.545064,-0.0522 -11.494148,-0.44971 -20.239045,-3.99198 -26.229407,-10.63346 -6.378867,-7.12386 -9.568408,-17.71646 -9.568408,-31.77791 0,-14.10799 3.189541,-24.724344 9.568408,-31.848183 6.42544,-7.123869 16.016737,-10.685653 28.774471,-10.685653 6.471998,0 12.641732,1.117315 18.508431,3.35225 5.86667,2.234934 11.407386,5.56418 16.622238,9.987504 V 71.65699 C 98.33651,68.39772 92.679296,65.930032 86.533219,64.253825 80.433745,62.577617 73.985032,61.739766 67.187113,61.739766 Z m 4.031796,56.849764 c 7.123439,0 12.836136,1.33399 17.137972,4.00182 4.255582,2.66781 6.70752,6.42408 7.355106,11.26908 l -45.516601,-0.046 c 0.09265,-4.63036 2.058701,-8.32529 5.897831,-11.08511 3.793029,-2.75981 8.834845,-4.1398 15.125692,-4.1398 z"
         sodipodi:nodetypes="scscsccccszcccsccscsscccssccccss" /><path
         id="path2"
         style="fill:#333333;stroke:#000000;stroke-width:1.5;stroke-dasharray:none;stroke-opacity:1"
         d="m 193.77215,127.58808 a 33.703796,27.289461 0 0 0 -2.82825,22.7552 33.703796,27.289461 0 0 0 2.86029,4.85913 73.087296,22.001381 0 0 0 16.19591,-13.80174 73.087296,22.001381 0 0 0 -16.22795,-13.81259 z" /><text
         xml:space="preserve"
         transform="matrix(0.53179892,0,0,0.53179892,40.404031,-209.21425)"
         id="text5"
         style="font-size:33.3333px;font-family:sans-serif;-inkscape-font-specification:sans-serif;text-align:center;white-space:pre;shape-inside:url(#rect6);display:inline;fill:#333333;stroke:#000000;stroke-width:0.377953;stroke-dasharray:none;stroke-opacity:1"><tspan
           x="134.35451"
           y="671.72653"
           id="tspan4"><tspan
             style="font-style:italic"
             id="tspan3">ref</tspan></tspan></text><path
         id="path6"
         style="fill:#333333;stroke:#000000;stroke-width:1.5;stroke-dasharray:none;stroke-opacity:1"
         d="m 193.77215,127.58808 a 33.703796,27.289461 0 0 0 -2.82825,22.7552 33.703796,27.289461 0 0 0 2.86029,4.85913 73.087296,22.001381 0 0 0 16.19591,-13.80174 73.087296,22.001381 0 0 0 -16.22795,-13.81259 z" /><path
         style="fill:#999999;stroke:#000000;stroke-width:1.5;stroke-dasharray:none;stroke-opacity:1"
         d="m 149.09571,144.1387 c 0,0 55.35861,13.93863 -66.841529,36.33203 z"
         id="path3"
         sodipodi:nodetypes="ccc" /></g></g><style
     type="text/css"
     id="style1">
<![CDATA[
	.st0{fill:#000000;}
]]>
</style></svg>
